<svg xmlns="http://www.w3.org/2000/svg" viewBox="0 0 1500 1000" width="1500" height="1000">
  <style>
    text { font-family: 'SF Mono', 'Fira Code', 'Cascadia Code', 'Courier New', monospace; fill: #e2e8f0; letter-spacing: 0.02em; }
    .title { font-size: 18px; font-weight: 700; fill: #e2e8f0; letter-spacing: 0.02em; }
    .subtitle { font-size: 12px; fill: #94a3b8; }
    .label { font-size: 13px; fill: #e2e8f0; }
    .sub { font-size: 11px; fill: #94a3b8; }
    .edge { font-size: 11px; fill: #cbd5e1; font-weight: 700; }
    .col-head { font-size: 13px; font-weight: 700; fill: #cbd5e1; letter-spacing: 0.08em; }
    .legend { font-size: 11px; fill: #94a3b8; }
  </style>
  <defs>
    <linearGradient id="bg-grad" x1="0%" y1="0%" x2="100%" y2="100%">
      <stop offset="0%" stop-color="#0f0f1a"/>
      <stop offset="100%" stop-color="#1a1a2e"/>
    </linearGradient>
    <marker id="arr-blue" markerWidth="10" markerHeight="7" refX="9" refY="3.5" orient="auto">
      <polygon points="0,0 10,3.5 0,7" fill="#3b82f6"/>
    </marker>
    <marker id="arr-red" markerWidth="10" markerHeight="7" refX="9" refY="3.5" orient="auto">
      <polygon points="0,0 10,3.5 0,7" fill="#ef4444"/>
    </marker>
    <marker id="arr-green" markerWidth="10" markerHeight="7" refX="9" refY="3.5" orient="auto">
      <polygon points="0,0 10,3.5 0,7" fill="#10b981"/>
    </marker>
    <marker id="arr-orange" markerWidth="10" markerHeight="7" refX="9" refY="3.5" orient="auto">
      <polygon points="0,0 10,3.5 0,7" fill="#f97316"/>
    </marker>
    <marker id="arr-purple" markerWidth="10" markerHeight="7" refX="9" refY="3.5" orient="auto">
      <polygon points="0,0 10,3.5 0,7" fill="#a855f7"/>
    </marker>
    <marker id="arr-gray" markerWidth="10" markerHeight="7" refX="9" refY="3.5" orient="auto">
      <polygon points="0,0 10,3.5 0,7" fill="#64748b"/>
    </marker>
  </defs>
  <rect width="1500" height="1000" fill="url(#bg-grad)"/>
  <text x="750" y="36" text-anchor="middle" class="title">Profile Assignment Decision Tree</text>
  <text x="750" y="58" text-anchor="middle" class="subtitle">APv1 · Profile not assigned or wrong profile  ·  docs/decision-trees/02-profile-assignment.md</text>
  <polygon points="750,90 880,135 750,180 620,135" fill="#1e3a5f" stroke="#3b82f6" stroke-width="1.5"/>
  <text x="750" y="125" text-anchor="middle" class="label">Device registered</text>
  <text x="750" y="141" text-anchor="middle" class="label">in Autopilot portal?</text>
  <text x="750" y="157" text-anchor="middle" class="sub">PRD1</text>
  <rect x="40" y="105" width="240" height="60" rx="8" ry="8" fill="#052e16" stroke="#10b981" stroke-width="1.5"/>
  <text x="160" y="133" text-anchor="middle" class="label">Return to Initial Triage</text>
  <text x="160" y="149" text-anchor="middle" class="sub">PRR0</text>
  <path d="M 620,135 L 280,135" stroke="#10b981" stroke-width="1.5" fill="none" marker-end="url(#arr-green)"/>
  <rect x="426" y="118" width="28" height="14" fill="#0f0f1a" opacity="0.95"/>
  <text x="440" y="128" text-anchor="middle" class="edge">No</text>
  <polygon points="750,230 880,275 750,320 620,275" fill="#1e3a5f" stroke="#3b82f6" stroke-width="1.5"/>
  <text x="750" y="265" text-anchor="middle" class="label">Profile assigned</text>
  <text x="750" y="281" text-anchor="middle" class="label">to device?</text>
  <text x="750" y="297" text-anchor="middle" class="sub">PRD2</text>
  <path d="M 750,180 L 750,230" stroke="#3b82f6" stroke-width="1.5" fill="none" marker-end="url(#arr-blue)"/>
  <rect x="761" y="208" width="28" height="14" fill="#0f0f1a" opacity="0.95"/>
  <text x="775" y="218" text-anchor="middle" class="edge">Yes</text>
  <polygon points="310,380 440,425 310,470 180,425" fill="#1e3a5f" stroke="#3b82f6" stroke-width="1.5"/>
  <text x="310" y="415" text-anchor="middle" class="label">In correct group</text>
  <text x="310" y="431" text-anchor="middle" class="label">for profile?</text>
  <text x="310" y="447" text-anchor="middle" class="sub">PRD3 · 3-way</text>
  <polygon points="1190,380 1320,425 1190,470 1060,425" fill="#1e3a5f" stroke="#3b82f6" stroke-width="1.5"/>
  <text x="1190" y="415" text-anchor="middle" class="label">Correct profile</text>
  <text x="1190" y="431" text-anchor="middle" class="label">for this device?</text>
  <text x="1190" y="447" text-anchor="middle" class="sub">PRD5 · 3-way</text>
  <path d="M 690,320 L 690,350 L 310,350 L 310,380" stroke="#3b82f6" stroke-width="1.5" fill="none" marker-end="url(#arr-blue)"/>
  <rect x="516" y="332" width="28" height="14" fill="#0f0f1a" opacity="0.95"/>
  <text x="530" y="342" text-anchor="middle" class="edge">No</text>
  <path d="M 810,320 L 810,350 L 1190,350 L 1190,380" stroke="#3b82f6" stroke-width="1.5" fill="none" marker-end="url(#arr-blue)"/>
  <rect x="946" y="332" width="28" height="14" fill="#0f0f1a" opacity="0.95"/>
  <text x="960" y="342" text-anchor="middle" class="edge">Yes</text>
  <rect x="40" y="560" width="240" height="60" rx="8" ry="8" fill="#1e3a5f" stroke="#3b82f6" stroke-width="1.5"/>
  <text x="160" y="580" text-anchor="middle" class="label">Add device to</text>
  <text x="160" y="596" text-anchor="middle" class="label">correct group</text>
  <text x="160" y="612" text-anchor="middle" class="sub">PRA1</text>
  <path d="M 180,425 L 100,425 L 100,560" stroke="#3b82f6" stroke-width="1.5" fill="none" marker-end="url(#arr-blue)"/>
  <rect x="111" y="408" width="28" height="14" fill="#0f0f1a" opacity="0.95"/>
  <text x="125" y="418" text-anchor="middle" class="edge">No</text>
  <rect x="40" y="650" width="240" height="70" rx="8" ry="8" fill="#450a0a" stroke="#ef4444" stroke-width="1.5"/>
  <text x="160" y="676" text-anchor="middle" class="label">Escalate L2</text>
  <text x="160" y="692" text-anchor="middle" class="sub">In correct group</text>
  <text x="160" y="705" text-anchor="middle" class="sub">PRE2</text>
  <path d="M 200,470 L 200,650" stroke="#ef4444" stroke-width="1.5" fill="none" marker-end="url(#arr-red)"/>
  <rect x="206" y="625" width="28" height="14" fill="#0f0f1a" opacity="0.95"/>
  <text x="220" y="635" text-anchor="middle" class="edge">Yes</text>
  <rect x="300" y="560" width="240" height="70" rx="8" ry="8" fill="#450a0a" stroke="#ef4444" stroke-width="1.5"/>
  <text x="420" y="586" text-anchor="middle" class="label">Escalate L2</text>
  <text x="420" y="602" text-anchor="middle" class="sub">Cannot verify group</text>
  <text x="420" y="615" text-anchor="middle" class="sub">PRE3</text>
  <path d="M 440,425 L 540,425 L 540,560" stroke="#ef4444" stroke-width="1.5" fill="none" marker-end="url(#arr-red)"/>
  <rect x="486" y="408" width="58" height="14" fill="#0f0f1a" opacity="0.95"/>
  <text x="515" y="418" text-anchor="middle" class="edge">Don&#x27;t know</text>
  <polygon points="160,690 280,735 160,780 40,735" fill="#1e3a5f" stroke="#3b82f6" stroke-width="1.5"/>
  <text x="160" y="725" text-anchor="middle" class="label">Profile assigned</text>
  <text x="160" y="741" text-anchor="middle" class="label">after 30 min?</text>
  <text x="160" y="757" text-anchor="middle" class="sub">PRD4</text>
  <path d="M 160,620 L 160,690" stroke="#3b82f6" stroke-width="1.5" fill="none" marker-end="url(#arr-blue)"/>
  <rect x="20" y="820" width="130" height="70" rx="8" ry="8" fill="#052e16" stroke="#10b981" stroke-width="1.5"/>
  <text x="85" y="846" text-anchor="middle" class="label">Resolved</text>
  <text x="85" y="862" text-anchor="middle" class="sub">after group fix</text>
  <text x="85" y="875" text-anchor="middle" class="sub">PRR1</text>
  <rect x="170" y="820" width="130" height="70" rx="8" ry="8" fill="#450a0a" stroke="#ef4444" stroke-width="1.5"/>
  <text x="235" y="853" text-anchor="middle" class="label">Escalate L2</text>
  <text x="235" y="869" text-anchor="middle" class="sub">PRE1</text>
  <path d="M 100,780 L 85,820" stroke="#10b981" stroke-width="1.5" fill="none" marker-end="url(#arr-green)"/>
  <rect x="61" y="800" width="28" height="14" fill="#0f0f1a" opacity="0.95"/>
  <text x="75" y="810" text-anchor="middle" class="edge">Yes</text>
  <path d="M 220,780 L 235,820" stroke="#ef4444" stroke-width="1.5" fill="none" marker-end="url(#arr-red)"/>
  <rect x="241" y="800" width="28" height="14" fill="#0f0f1a" opacity="0.95"/>
  <text x="255" y="810" text-anchor="middle" class="edge">No</text>
  <polygon points="1190,560 1320,605 1190,650 1060,605" fill="#1e3a5f" stroke="#3b82f6" stroke-width="1.5"/>
  <text x="1190" y="595" text-anchor="middle" class="label">Profile applied</text>
  <text x="1190" y="611" text-anchor="middle" class="label">to device?</text>
  <text x="1190" y="627" text-anchor="middle" class="sub">PRD6</text>
  <path d="M 1190,470 L 1190,560" stroke="#3b82f6" stroke-width="1.5" fill="none" marker-end="url(#arr-blue)"/>
  <rect x="1198" y="538" width="28" height="14" fill="#0f0f1a" opacity="0.95"/>
  <text x="1212" y="548" text-anchor="middle" class="edge">Yes</text>
  <rect x="1340" y="480" width="140" height="70" rx="8" ry="8" fill="#450a0a" stroke="#ef4444" stroke-width="1.5"/>
  <text x="1410" y="506" text-anchor="middle" class="label">Escalate L2</text>
  <text x="1410" y="522" text-anchor="middle" class="sub">Wrong profile</text>
  <text x="1410" y="535" text-anchor="middle" class="sub">PRE4</text>
  <path d="M 1320,425 L 1340,510" stroke="#ef4444" stroke-width="1.5" fill="none" marker-end="url(#arr-red)"/>
  <rect x="1356" y="440" width="28" height="14" fill="#0f0f1a" opacity="0.95"/>
  <text x="1370" y="450" text-anchor="middle" class="edge">No</text>
  <rect x="800" y="480" width="220" height="70" rx="8" ry="8" fill="#450a0a" stroke="#ef4444" stroke-width="1.5"/>
  <text x="910" y="506" text-anchor="middle" class="label">Escalate L2</text>
  <text x="910" y="522" text-anchor="middle" class="sub">Cannot verify profile</text>
  <text x="910" y="535" text-anchor="middle" class="sub">PRE6</text>
  <path d="M 1060,425 L 1020,510" stroke="#ef4444" stroke-width="1.5" fill="none" marker-end="url(#arr-red)"/>
  <rect x="961" y="440" width="58" height="14" fill="#0f0f1a" opacity="0.95"/>
  <text x="990" y="450" text-anchor="middle" class="edge">Don&#x27;t know</text>
  <rect x="800" y="750" width="220" height="70" rx="8" ry="8" fill="#052e16" stroke="#10b981" stroke-width="1.5"/>
  <text x="910" y="776" text-anchor="middle" class="label">Resolved</text>
  <text x="910" y="792" text-anchor="middle" class="sub">Profile applied</text>
  <text x="910" y="805" text-anchor="middle" class="sub">PRR3</text>
  <path d="M 1060,605 L 1020,785" stroke="#10b981" stroke-width="1.5" fill="none" marker-end="url(#arr-green)"/>
  <rect x="996" y="630" width="28" height="14" fill="#0f0f1a" opacity="0.95"/>
  <text x="1010" y="640" text-anchor="middle" class="edge">Yes</text>
  <rect x="1060" y="750" width="260" height="50" rx="8" ry="8" fill="#1e3a5f" stroke="#3b82f6" stroke-width="1.5"/>
  <text x="1190" y="773" text-anchor="middle" class="label">Reboot device, wait for sync</text>
  <text x="1190" y="789" text-anchor="middle" class="sub">PRA2 · pending</text>
  <path d="M 1190,650 L 1190,750" stroke="#3b82f6" stroke-width="1.5" fill="none" marker-end="url(#arr-blue)"/>
  <rect x="1207" y="728" width="43" height="14" fill="#0f0f1a" opacity="0.95"/>
  <text x="1228" y="738" text-anchor="middle" class="edge">Pending</text>
  <rect x="1060" y="830" width="130" height="60" rx="8" ry="8" fill="#052e16" stroke="#10b981" stroke-width="1.5"/>
  <text x="1125" y="858" text-anchor="middle" class="label">Resolved</text>
  <text x="1125" y="874" text-anchor="middle" class="sub">PRR2</text>
  <rect x="1210" y="830" width="110" height="60" rx="8" ry="8" fill="#450a0a" stroke="#ef4444" stroke-width="1.5"/>
  <text x="1265" y="858" text-anchor="middle" class="label">Escalate</text>
  <text x="1265" y="874" text-anchor="middle" class="sub">PRE5</text>
  <path d="M 1140,800 L 1125,830" stroke="#10b981" stroke-width="1.5" fill="none" marker-end="url(#arr-green)"/>
  <rect x="1098" y="805" width="28" height="14" fill="#0f0f1a" opacity="0.95"/>
  <text x="1112" y="815" text-anchor="middle" class="edge">Yes</text>
  <path d="M 1240,800 L 1265,830" stroke="#ef4444" stroke-width="1.5" fill="none" marker-end="url(#arr-red)"/>
  <rect x="1266" y="805" width="28" height="14" fill="#0f0f1a" opacity="0.95"/>
  <text x="1280" y="815" text-anchor="middle" class="edge">No</text>
  <rect x="30" y="965" width="14" height="14" rx="3" ry="3" fill="#1e3a5f" stroke="#3b82f6" stroke-width="1.2"/>
  <text x="52" y="976" class="legend">Decision / Action</text>
  <rect x="172" y="965" width="14" height="14" rx="3" ry="3" fill="#052e16" stroke="#10b981" stroke-width="1.2"/>
  <text x="194" y="976" class="legend">Resolved</text>
  <rect x="260" y="965" width="14" height="14" rx="3" ry="3" fill="#450a0a" stroke="#ef4444" stroke-width="1.2"/>
  <text x="282" y="976" class="legend">Escalate L2</text>
  <text x="1480" y="992" text-anchor="end" class="legend">docs/diagrams/decision-tree-02-profile-assignment.svg</text>
</svg>
